<svg xmlns="http://www.w3.org/2000/svg" viewBox="0 0 24 24" fill="none" stroke="currentColor" stroke-width="1.8" stroke-linecap="round" stroke-linejoin="round">
  <path d="M19.5 6.5L15 2.5H7.5L3 7V17L7.5 21.5H15L19.5 17.5H16L13.5 20H8.5L4.5 16V8L8.5 4H13.5L16 6.5H19.5Z" fill="currentColor" fill-opacity="0.18"/>
  <circle cx="12" cy="12" r="3.2" stroke-width="1.6"/>
  <circle cx="12" cy="12" r="1.3" fill="currentColor"/>
  <line x1="12" y1="5.5" x2="12" y2="7.8"/>
  <line x1="12" y1="16.2" x2="12" y2="18.5"/>
  <line x1="7.8" y1="12" x2="5.5" y2="12"/>
  <line x1="16.2" y1="12" x2="18.5" y2="12"/>
  <path d="M6 9.5H7.5L9 8V6.5" stroke-width="1.3"/>
  <circle cx="9" cy="6" r="0.8" fill="currentColor"/>
  <path d="M6 14.5H7.5L9 16V17.5" stroke-width="1.3"/>
  <circle cx="9" cy="18" r="0.8" fill="currentColor"/>
</svg>
